<svg width="37" height="35" viewBox="0 0 37 35" fill="none" xmlns="http://www.w3.org/2000/svg">
<g filter="url(#filter0_d_4061_1309)">
<path d="M6.14767 6.73313C6.14767 9.02506 6.92558 10.6788 8.45801 11.6499C9.71451 12.4476 11.1706 12.5673 11.9282 12.5673C12.1122 12.5673 12.2603 12.5581 12.3631 12.5519C12.3631 12.5519 12.1231 14.0922 13.2829 15.614H13.2299C11.2204 15.614 4.66669 16.0266 4.66669 21.3315C4.66669 26.7254 10.6857 27 11.8939 27C11.989 27 12.0451 26.9969 12.0451 26.9969C12.0576 26.9969 12.1433 27 12.2914 27C13.0662 27 15.0694 26.9049 16.9293 26.0136C19.3425 24.863 20.5662 22.8549 20.5662 20.0536C20.5662 17.3475 18.7018 15.7367 17.3408 14.5585C16.5099 13.839 15.7912 13.2193 15.7912 12.6164C15.7912 12.0027 16.3166 11.541 16.9791 10.9565C18.0532 10.013 19.0666 8.66761 19.0666 6.12409C19.0666 3.88892 18.7719 2.38705 16.9558 1.43438C17.1444 1.33926 17.8147 1.27023 18.1452 1.2242C19.1289 1.09227 20.5678 0.941932 20.5678 0.151875V0H13.3983C13.3266 0.00306818 6.14767 0.263864 6.14767 6.73313ZM17.7212 20.5599C17.8584 22.7168 15.983 24.3077 13.166 24.5086C10.3053 24.7157 7.95136 23.4486 7.81417 21.2932C7.74714 20.2561 8.21014 19.2436 9.11588 18.4352C10.0341 17.6175 11.2953 17.1112 12.6671 17.0115C12.8293 17.0023 12.9898 16.9931 13.1504 16.9931C15.799 16.9947 17.5918 18.5257 17.7212 20.5599ZM15.8489 5.2558C16.552 7.69193 15.4904 10.2355 13.7974 10.7064C13.6025 10.7599 13.401 10.7867 13.1987 10.7862C11.6491 10.7862 10.1136 9.2429 9.54303 7.11511C9.22501 5.92466 9.25151 4.87841 9.6163 3.87511C9.9733 2.88563 10.6187 2.22136 11.4293 1.99585C11.6242 1.94216 11.8253 1.91455 12.0295 1.91455C13.9002 1.91455 15.1037 2.67852 15.8489 5.2558ZM27.9899 10.4318V5.82955H24.872V10.4318H20.1952V13.5H24.872V18.1023H27.9899V13.5H32.6667V10.4318H27.9899Z" fill="#D53D5C"/>
</g>
<defs>
<filter id="filter0_d_4061_1309" x="0.666687" y="0" width="36" height="35" filterUnits="userSpaceOnUse" color-interpolation-filters="sRGB">
<feFlood flood-opacity="0" result="BackgroundImageFix"/>
<feColorMatrix in="SourceAlpha" type="matrix" values="0 0 0 0 0 0 0 0 0 0 0 0 0 0 0 0 0 0 127 0" result="hardAlpha"/>
<feOffset dy="4"/>
<feGaussianBlur stdDeviation="2"/>
<feComposite in2="hardAlpha" operator="out"/>
<feColorMatrix type="matrix" values="0 0 0 0 0 0 0 0 0 0 0 0 0 0 0 0 0 0 0.25 0"/>
<feBlend mode="normal" in2="BackgroundImageFix" result="effect1_dropShadow_4061_1309"/>
<feBlend mode="normal" in="SourceGraphic" in2="effect1_dropShadow_4061_1309" result="shape"/>
</filter>
</defs>
</svg>
