<svg width="40" height="38" viewBox="0 0 40 38" fill="none" xmlns="http://www.w3.org/2000/svg">
<path d="M38.6668 14.9997H37.3335V6.99967C37.3335 6.64605 37.193 6.30691 36.943 6.05686C36.6929 5.80682 36.3538 5.66634 36.0002 5.66634H4.00018C3.68446 5.67149 3.37716 5.56442 3.133 5.36421C2.88883 5.16399 2.72364 4.88362 2.66685 4.57301V4.09301C2.72364 3.7824 2.88883 3.50202 3.133 3.30181C3.37716 3.10159 3.68446 2.99452 4.00018 2.99967H35.4402C35.7938 2.99967 36.1329 2.8592 36.383 2.60915C36.633 2.3591 36.7735 2.01996 36.7735 1.66634C36.7735 1.31272 36.633 0.973581 36.383 0.723532C36.1329 0.473484 35.7938 0.333008 35.4402 0.333008H4.00018C2.93932 0.333008 1.9219 0.754435 1.17176 1.50458C0.42161 2.25473 0.000183047 3.27214 0.000183047 4.33301C-0.0091756 4.49287 -0.0091756 4.65314 0.000183047 4.81301V32.2397C0.00541674 32.9576 0.152005 33.6674 0.431577 34.3286C0.711149 34.9899 1.11823 35.5896 1.62957 36.0935C2.14092 36.5974 2.74651 36.9957 3.41178 37.2655C4.07704 37.5354 4.78895 37.6716 5.50685 37.6663H36.0002C36.3538 37.6663 36.6929 37.5259 36.943 37.2758C37.193 37.0258 37.3335 36.6866 37.3335 36.333V28.333H38.6668C39.0205 28.333 39.3596 28.1925 39.6097 27.9425C39.8597 27.6924 40.0002 27.3533 40.0002 26.9997V16.333C40.0002 15.9794 39.8597 15.6402 39.6097 15.3902C39.3596 15.1401 39.0205 14.9997 38.6668 14.9997ZM34.6668 34.9997H5.50685C4.76525 35.0068 4.05082 34.7209 3.51897 34.204C2.98712 33.6871 2.68087 32.9812 2.66685 32.2397V8.173C3.09965 8.29843 3.55 8.35247 4.00018 8.333H34.6668V14.9997H25.3335C23.5654 14.9997 21.8697 15.702 20.6195 16.9523C19.3692 18.2025 18.6668 19.8982 18.6668 21.6663C18.6668 23.4344 19.3692 25.1301 20.6195 26.3804C21.8697 27.6306 23.5654 28.333 25.3335 28.333H34.6668V34.9997ZM37.3335 25.6663H25.3335C24.2726 25.6663 23.2552 25.2449 22.5051 24.4948C21.7549 23.7446 21.3335 22.7272 21.3335 21.6663C21.3335 20.6055 21.7549 19.5881 22.5051 18.8379C23.2552 18.0878 24.2726 17.6663 25.3335 17.6663H37.3335V25.6663Z" fill="#908294"/>
</svg>
